Coordinates
version=1
nRows=21
nColumns=22
inDegrees=yes

Units are S.I. units (second, meters, Newtons, ...)
If the header above contains a line with 'inDegrees', this indicates whether rotational values are in degrees (yes) or radians (no).

endheader
time	pelvis_tilt	pelvis_list	pelvis_rotation	pelvis_tx	pelvis_ty	pelvis_tz	hip_flexion_r	hip_adduction_r	hip_rotation_r	knee_angle_r	ankle_angle_r	subtalar_angle_r	hip_flexion_l	hip_adduction_l	hip_rotation_l	knee_angle_l	ankle_angle_l	subtalar_angle_l	lumbar_extension	lumbar_bending	lumbar_rotation
      3.43000000	     -4.13752427	     -3.84738674	     -1.76109980	     -0.41653037	      0.94700086	     -0.22155719	      6.95853095	      3.24833637	      0.42033037	    -34.69618462	     11.25398552	      3.27968102	     21.75551598	     -4.27844336	      1.15915608	    -26.57194981	      6.52774333	     -8.09270709	     -5.34854990	      3.60334026	     -4.35636125
      3.44000000	     -4.20209984	     -3.73297916	     -1.99309432	     -0.42211986	      0.94646494	     -0.21928302	      6.10164801	      3.20194132	      0.24290947	    -32.71647179	     12.19709596	      3.26958088	     22.18046183	     -4.36658508	      1.03726913	    -26.60067395	      6.17407214	     -8.02313017	     -5.32600427	      3.48619732	     -3.96083062
      3.45000000	     -4.24079657	     -3.62701732	     -2.24733223	     -0.42777853	      0.94595853	     -0.21691354	      5.31963478	      3.17373095	      0.05261092	    -30.82378303	     13.10913260	      3.20079759	     22.58027006	     -4.47928435	      0.89934379	    -26.63476060	      5.80350159	     -7.94306273	     -5.34493985	      3.37445436	     -3.55568941
      3.46000000	     -4.26664754	     -3.53519880	     -2.52482283	     -0.43348250	      0.94546852	     -0.21445058	      4.62686295	      3.17700110	     -0.12183444	    -29.03881432	     13.97156341	      3.08412680	     22.95997845	     -4.62265292	      0.74499026	    -26.66154733	      5.45028592	     -7.86413661	     -5.38250777	      3.27851536	     -3.16698994
      3.47000000	     -4.27563881	     -3.45413332	     -2.81899402	     -0.43925222	      0.94499534	     -0.21191749	      4.03352138	      3.20510751	     -0.28667218	    -27.40274363	     14.76090878	      2.92113277	     23.32416676	     -4.78889518	      0.58166002	    -26.69202321	      5.06719945	     -7.78115639	     -5.44877983	      3.19065680	     -2.77588323
      3.48000000	     -4.28734116	     -3.38641469	     -3.12877675	     -0.44507858	      0.94451525	     -0.20934082	      3.55968462	      3.26316835	     -0.41622231	    -25.93051048	     15.46347684	      2.74279444	     23.68736942	     -4.97852233	      0.41345829	    -26.71348968	      4.67862081	     -7.69885383	     -5.51718244	      3.11898932	     -2.39629166
      3.49000000	     -4.29714177	     -3.32723792	     -3.44562293	     -0.45095846	      0.94403242	     -0.20675002	      3.20170537	      3.34251670	     -0.51587730	    -24.63682657	     16.08514482	      2.54769480	     24.04623190	     -5.18276224	      0.24333405	    -26.72492600	      4.26243990	     -7.60962997	     -5.59260864	      3.05920159	     -2.02957482
      3.50000000	     -4.33329558	     -3.28026515	     -3.72849378	     -0.45690497	      0.94348444	     -0.20425453	      2.99477328	      3.43566451	     -0.65280782	    -23.54283513	     16.66833434	      2.45720727	     24.44487068	     -5.38373324	      0.12474078	    -26.73224466	      3.81239642	     -7.49575272	     -5.64254322	      3.02710373	     -1.73369287
      3.51000000	     -4.33097107	     -3.22827997	     -4.07226380	     -0.46285748	      0.94303131	     -0.20165295	      2.83350109	      3.55278581	     -0.59287696	    -22.59076383	     17.11026688	      2.17892505	     24.76510655	     -5.61807739	     -0.09656517	    -26.68888142	      3.35915591	     -7.37591113	     -5.74236964	      2.97442577	     -1.36310130
      3.52000000	     -4.35080506	     -3.18277054	     -4.36126820	     -0.46885566	      0.94251529	     -0.19921153	      2.80225402	      3.67176700	     -0.58210427	    -21.82282626	     17.53495587	      1.90213584	     25.12293649	     -5.83644205	     -0.25935263	    -26.63965562	      2.87019079	     -7.20326758	     -5.82148422	      2.94619725	     -1.08011720
      3.53000000	     -4.35586409	     -3.14669387	     -4.59033000	     -0.47483306	      0.94204189	     -0.19695543	      2.82127709	      3.79545952	     -0.58348356	    -21.17605038	     17.91368091	      1.81429573	     25.44501734	     -6.03479209	     -0.36078983	    -26.52995522	      2.33852366	     -7.02090217	     -5.91865421	      2.94463433	     -0.89526999
      3.54000000	     -4.41967335	     -3.09596734	     -4.85708820	     -0.48083587	      0.94150349	     -0.19467187	      3.00457199	      3.92505175	     -0.46960100	    -20.70534633	     18.21558647	      1.45216930	     25.80015412	     -6.25821335	     -0.56332723	    -26.36842130	      1.85734237	     -6.64813848	     -5.95174681	      2.92293859	     -0.65542941
      3.55000000	     -4.45182680	     -3.03938855	     -5.05463741	     -0.48677151	      0.94106912	     -0.19259309	      3.19630318	      4.03722850	     -0.38574389	    -20.31560807	     18.45132618	      1.25219645	     26.09124063	     -6.44321966	     -0.71067825	    -26.13670647	      1.32217419	     -6.27011640	     -6.01928222	      2.90251000	     -0.50025424
      3.56000000	     -4.46564305	     -2.99555031	     -5.19424993	     -0.49267207	      0.94072245	     -0.19068637	      3.42922205	      4.15754318	     -0.31979846	    -20.04302007	     18.64308234	      1.07645128	     26.33052877	     -6.61884470	     -0.82072964	    -25.83538760	      0.78975900	     -5.84836364	     -6.11564822	      2.90368860	     -0.44065286
      3.57000000	     -4.50834659	     -2.94774148	     -5.29726072	     -0.49847773	      0.94038208	     -0.18891901	      3.72944257	      4.26818459	     -0.30529157	    -19.83994350	     18.80532508	      0.73329179	     26.58993497	     -6.78564075	     -0.93404409	    -25.52796001	      0.40212863	     -5.13478772	     -6.17040757	      2.90170208	     -0.36276027
      3.58000000	     -4.51149431	     -2.91407132	     -5.33239027	     -0.50420570	      0.94020369	     -0.18733655	      4.03137975	      4.38553696	     -0.31178456	    -19.72739323	     18.89114221	      0.41010436	     26.76806640	     -6.93219221	     -0.98147042	    -25.15999091	      0.04313507	     -4.38990402	     -6.27599730	      2.91792238	     -0.39134204
      3.59000000	     -4.50846701	     -2.86970706	     -5.31700723	     -0.50978913	      0.94014341	     -0.18591108	      4.35280691	      4.48152143	     -0.35903476	    -19.67164660	     18.91066505	      0.09138907	     26.90189670	     -7.04153112	     -0.97892352	    -24.76110025	     -0.22810357	     -3.57187242	     -6.37580133	      2.91948840	     -0.46654065
      3.60000000	     -4.49070069	     -2.82926125	     -5.24369142	     -0.51520865	      0.94021270	     -0.18464676	      4.67377553	      4.57048274	     -0.45801255	    -19.65713947	     18.87792952	     -0.24993567	     26.99537361	     -7.12374220	     -0.91222559	    -24.37009159	     -0.37423845	     -2.66820751	     -6.47797707	      2.92132930	     -0.59246431
      3.61000000	     -4.45656887	     -2.79182821	     -5.11695066	     -0.52044990	      0.94041174	     -0.18353278	      4.98846635	      4.65138663	     -0.60072800	    -19.67936733	     18.80017261	     -0.62558390	     27.05376024	     -7.17894800	     -0.78105327	    -24.01785700	     -0.37598680	     -1.68287816	     -6.58220306	      2.92282538	     -0.75912197
      3.62000000	     -4.40161718	     -2.75164869	     -4.94037648	     -0.52549265	      0.94074345	     -0.18254832	      5.28739788	      4.71831153	     -0.78148780	    -19.73161650	     18.68071695	     -1.01689818	     27.07834614	     -7.20136297	     -0.58201365	    -23.73656801	     -0.24108424	     -0.67871051	     -6.68707677	      2.91152039	     -0.96875698
      3.63000000	     -4.32767673	     -2.70361771	     -4.72047483	     -0.53032011	      0.94119847	     -0.18169624	      5.56163764	      4.76549343	     -0.98760489	    -19.79653456	     18.51265288	     -1.42629631	     27.07624466	     -7.18744504	     -0.32285766	    -23.55591283	      0.03971730	      0.31641584	     -6.78730837	      2.88502646	     -1.20659297
